<?xml version="1.0" encoding="utf-8" standalone="no"?>
<!DOCTYPE svg PUBLIC "-//W3C//DTD SVG 1.1//EN"
  "http://www.w3.org/Graphics/SVG/1.1/DTD/svg11.dtd">
<svg xmlns:xlink="http://www.w3.org/1999/xlink" width="352.8pt" height="273.6pt" viewBox="0 0 352.8 273.6" xmlns="http://www.w3.org/2000/svg" version="1.1">
 <metadata>
  <rdf:RDF xmlns:dc="http://purl.org/dc/elements/1.1/" xmlns:cc="http://creativecommons.org/ns#" xmlns:rdf="http://www.w3.org/1999/02/22-rdf-syntax-ns#">
   <cc:Work>
    <dc:type rdf:resource="http://purl.org/dc/dcmitype/StillImage"/>
    <dc:description>Manuscript Figure 2, BM4 sample 29 (zero-based). Unit-area densities.</dc:description>
    <dc:format>image/svg+xml</dc:format>
    <dc:creator>
     <cc:Agent>
      <dc:title>Matplotlib v3.11.2, https://matplotlib.org/</dc:title>
     </cc:Agent>
    </dc:creator>
   </cc:Work>
  </rdf:RDF>
 </metadata>
 <defs>
  <style type="text/css">*{stroke-linejoin: round; stroke-linecap: butt}</style>
 </defs>
 <g id="figure_1">
  <g id="patch_1">
   <path d="M 0 273.6
L 352.8 273.6
L 352.8 0
L 0 0
z
" style="fill: #f7f7f5"/>
  </g>
  <g id="axes_1">
   <g id="patch_2">
    <path d="M 67.032 213.408
L 338.688 213.408
L 338.688 13.68
L 67.032 13.68
z
" style="fill: #f7f7f5"/>
   </g>
   <g id="FillBetweenPolyCollection_1">
    <path d="M -965.2608 213.408
L -965.2608 213.408
L -962.54424 213.408
L -959.82768 213.408
L -957.11112 213.408
L -954.39456 213.408
L -951.678 213.408
L -948.96144 213.408
L -946.24488 213.408
L -943.52832 213.408
L -940.81176 213.408
L -938.0952 213.408
L -935.37864 213.408
L -932.66208 213.408
L -929.94552 213.408
L -927.22896 213.408
L -924.5124 213.408
L -921.79584 213.408
L -919.07928 213.408
L -916.36272 213.408
L -913.64616 213.408
L -910.9296 213.408
L -908.21304 213.408
L -905.49648 213.408
L -902.77992 213.408
L -900.06336 213.408
L -897.3468 213.408
L -894.63024 213.408
L -891.91368 213.408
L -889.19712 213.408
L -886.48056 213.408
L -883.764 213.408
L -881.04744 213.408
L -878.33088 213.408
L -875.61432 213.408
L -872.89776 213.408
L -870.1812 213.408
L -867.46464 213.408
L -864.74808 213.408
L -862.03152 213.408
L -859.31496 213.408
L -856.5984 213.408
L -853.88184 213.408
L -851.16528 213.408
L -848.44872 213.408
L -845.73216 213.408
L -843.0156 213.408
L -840.29904 213.408
L -837.58248 213.408
L -834.86592 213.408
L -832.14936 213.408
L -829.4328 213.408
L -826.71624 213.408
L -823.99968 213.408
L -821.28312 213.408
L -818.56656 213.408
L -815.85 213.408
L -813.13344 213.408
L -810.41688 213.408
L -807.70032 213.408
L -804.98376 213.408
L -802.2672 213.408
L -799.55064 213.408
L -796.83408 213.408
L -794.11752 213.408
L -791.40096 213.408
L -788.6844 213.408
L -785.96784 213.408
L -783.25128 213.408
L -780.53472 213.408
L -777.81816 213.408
L -775.1016 213.408
L -772.38504 213.408
L -769.66848 213.408
L -766.95192 213.408
L -764.23536 213.408
L -761.5188 213.408
L -758.80224 213.408
L -756.08568 213.408
L -753.36912 213.408
L -750.65256 213.408
L -747.936 213.408
L -745.21944 213.408
L -742.50288 213.408
L -739.78632 213.408
L -737.06976 213.408
L -734.3532 213.408
L -731.63664 213.408
L -728.92008 213.408
L -726.20352 213.408
L -723.48696 213.408
L -720.7704 213.408
L -718.05384 213.408
L -715.33728 213.408
L -712.62072 213.408
L -709.90416 213.408
L -707.1876 213.408
L -704.47104 213.408
L -701.75448 213.408
L -699.03792 213.408
L -696.32136 213.408
L -693.6048 213.408
L -690.88824 213.408
L -688.17168 213.408
L -685.45512 213.408
L -682.73856 213.408
L -680.022 213.408
L -677.30544 213.408
L -674.58888 213.408
L -671.87232 213.408
L -669.15576 213.408
L -666.4392 213.408
L -663.72264 213.408
L -661.00608 213.408
L -658.28952 213.408
L -655.57296 213.408
L -652.8564 213.408
L -650.13984 213.408
L -647.42328 213.408
L -644.70672 213.408
L -641.99016 213.408
L -639.2736 213.408
L -636.55704 213.408
L -633.84048 213.408
L -631.12392 213.408
L -628.40736 213.408
L -625.6908 213.408
L -622.97424 213.408
L -620.25768 213.408
L -617.54112 213.408
L -614.82456 213.408
L -612.108 213.408
L -609.39144 213.408
L -606.67488 213.408
L -603.95832 213.408
L -601.24176 213.408
L -598.5252 213.408
L -595.80864 213.408
L -593.09208 213.408
L -590.37552 213.408
L -587.65896 213.408
L -584.9424 213.408
L -582.22584 213.408
L -579.50928 213.408
L -576.79272 213.408
L -574.07616 213.408
L -571.3596 213.408
L -568.64304 213.408
L -565.92648 213.408
L -563.20992 213.408
L -560.49336 213.408
L -557.7768 213.408
L -555.06024 213.408
L -552.34368 213.408
L -549.62712 213.408
L -546.91056 213.408
L -544.194 213.408
L -541.47744 213.408
L -538.76088 213.408
L -536.04432 213.408
L -533.32776 213.408
L -530.6112 213.408
L -527.89464 213.408
L -525.17808 213.408
L -522.46152 213.408
L -519.74496 213.408
L -517.0284 213.408
L -514.31184 213.408
L -511.59528 213.408
L -508.87872 213.408
L -506.16216 213.408
L -503.4456 213.408
L -500.72904 213.408
L -498.01248 213.408
L -495.29592 213.408
L -492.57936 213.408
L -489.8628 213.408
L -487.14624 213.408
L -484.42968 213.408
L -481.71312 213.408
L -478.99656 213.408
L -476.28 213.408
L -473.56344 213.408
L -470.84688 213.408
L -468.13032 213.408
L -465.41376 213.408
L -462.6972 213.408
L -459.98064 213.408
L -457.26408 213.408
L -454.54752 213.408
L -451.83096 213.408
L -449.1144 213.408
L -446.39784 213.408
L -443.68128 213.408
L -440.96472 213.408
L -438.24816 213.408
L -435.5316 213.408
L -432.81504 213.408
L -430.09848 213.408
L -427.38192 213.408
L -424.66536 213.408
L -421.9488 213.408
L -419.23224 213.408
L -416.51568 213.408
L -413.79912 213.408
L -411.08256 213.408
L -408.366 213.408
L -405.64944 213.408
L -402.93288 213.408
L -400.21632 213.408
L -397.49976 213.408
L -394.7832 213.408
L -392.06664 213.408
L -389.35008 213.408
L -386.63352 213.408
L -383.91696 213.408
L -381.2004 213.408
L -378.48384 213.408
L -375.76728 213.408
L -373.05072 213.408
L -370.33416 213.408
L -367.6176 213.408
L -364.90104 213.408
L -362.18448 213.408
L -359.46792 213.408
L -356.75136 213.408
L -354.0348 213.408
L -351.31824 213.408
L -348.60168 213.408
L -345.88512 213.408
L -343.16856 213.408
L -340.452 213.408
L -337.73544 213.408
L -335.01888 213.408
L -332.30232 213.408
L -329.58576 213.408
L -326.8692 213.408
L -324.15264 213.408
L -321.43608 213.408
L -318.71952 213.408
L -316.00296 213.408
L -313.2864 213.408
L -310.56984 213.408
L -307.85328 213.408
L -305.13672 213.408
L -302.42016 213.408
L -299.7036 213.408
L -296.98704 213.408
L -294.27048 213.408
L -291.55392 213.408
L -288.83736 213.408
L -286.1208 213.408
L -283.40424 213.408
L -280.68768 213.408
L -277.97112 213.408
L -275.25456 213.408
L -272.538 213.408
L -269.82144 213.408
L -267.10488 213.408
L -264.38832 213.408
L -261.67176 213.408
L -258.9552 213.408
L -256.23864 213.408
L -253.52208 213.408
L -250.80552 213.408
L -248.08896 213.408
L -245.3724 213.408
L -242.65584 213.408
L -239.93928 213.408
L -237.22272 213.408
L -234.50616 213.408
L -231.7896 213.408
L -229.07304 213.408
L -226.35648 213.408
L -223.63992 213.408
L -220.92336 213.408
L -218.2068 213.408
L -215.49024 213.408
L -212.77368 213.408
L -210.05712 213.408
L -207.34056 213.408
L -204.624 213.408
L -201.90744 213.408
L -199.19088 213.408
L -196.47432 213.408
L -193.75776 213.408
L -191.0412 213.408
L -188.32464 213.408
L -185.60808 213.408
L -182.89152 213.408
L -180.17496 213.408
L -177.4584 213.408
L -174.74184 213.408
L -172.02528 213.408
L -169.30872 213.408
L -166.59216 213.408
L -163.8756 213.408
L -161.15904 213.408
L -158.44248 213.408
L -155.72592 213.408
L -153.00936 213.408
L -150.2928 213.408
L -147.57624 213.408
L -144.85968 213.408
L -142.14312 213.408
L -139.42656 213.408
L -136.71 213.408
L -133.99344 213.408
L -131.27688 213.408
L -128.56032 213.408
L -125.84376 213.408
L -123.1272 213.408
L -120.41064 213.408
L -117.69408 213.408
L -114.97752 213.408
L -112.26096 213.408
L -109.5444 213.408
L -106.82784 213.408
L -104.11128 213.408
L -101.39472 213.408
L -98.67816 213.408
L -95.9616 213.408
L -93.24504 213.408
L -90.52848 213.408
L -87.81192 213.408
L -85.09536 213.408
L -82.3788 213.408
L -79.66224 213.408
L -76.94568 213.408
L -74.22912 213.408
L -71.51256 213.408
L -68.796 213.408
L -66.07944 213.408
L -63.36288 213.408
L -60.64632 213.408
L -57.92976 213.408
L -55.2132 213.408
L -52.49664 213.408
L -49.78008 213.408
L -47.06352 213.408
L -44.34696 213.408
L -41.6304 213.408
L -38.91384 213.408
L -36.19728 213.408
L -33.48072 213.408
L -30.76416 213.408
L -28.0476 213.408
L -25.33104 213.408
L -22.61448 213.408
L -19.89792 213.408
L -17.18136 213.408
L -14.4648 213.408
L -11.74824 213.408
L -9.03168 213.408
L -6.31512 213.408
L -3.59856 213.408
L -0.882 213.407999
L 1.83456 213.407999
L 4.55112 213.407998
L 7.26768 213.407997
L 9.98424 213.407996
L 12.7008 213.407993
L 15.41736 213.407989
L 18.13392 213.407982
L 20.85048 213.407972
L 23.56704 213.407955
L 26.2836 213.407929
L 29.00016 213.407889
L 31.71672 213.407827
L 34.43328 213.407733
L 37.14984 213.40759
L 39.8664 213.407376
L 42.58296 213.407057
L 45.29952 213.406585
L 48.01608 213.405891
L 50.73264 213.404877
L 53.4492 213.403409
L 56.16576 213.401296
L 58.88232 213.39828
L 61.59888 213.394004
L 64.31544 213.387986
L 67.032 213.379579
L 69.74856 213.367921
L 72.46512 213.35187
L 75.18168 213.329936
L 77.89824 213.300182
L 80.6148 213.260117
L 83.33136 213.206569
L 86.04792 213.135529
L 88.76448 213.041986
L 91.48104 212.919732
L 94.1976 212.76115
L 96.91416 212.556993
L 99.63072 212.296149
L 102.34728 211.965406
L 105.06384 211.54923
L 107.7804 211.029565
L 110.49696 210.385676
L 113.21352 209.594051
L 115.93008 208.628387
L 118.64664 207.459676
L 121.3632 206.056421
L 124.07976 204.385006
L 126.79632 202.410226
L 129.51288 200.09601
L 132.22944 197.406333
L 134.946 194.306321
L 137.66256 190.763542
L 140.37912 186.74946
L 143.09568 182.241009
L 145.81224 177.22226
L 148.5288 171.686097
L 151.24536 165.635847
L 153.96192 159.08677
L 156.67848 152.067341
L 159.39504 144.620212
L 162.1116 136.802788
L 164.82816 128.687334
L 167.54472 120.360551
L 170.26128 111.922582
L 172.97784 103.485427
L 175.6944 95.170785
L 178.41096 87.107357
L 181.12752 79.427683
L 183.84408 72.264623
L 186.56064 65.747588
L 189.2772 59.998692
L 191.99376 55.128958
L 194.71032 51.234764
L 197.42688 48.394674
L 200.14344 46.666802
L 202.86 46.086833
L 205.57656 46.666802
L 208.29312 48.394674
L 211.00968 51.234764
L 213.72624 55.128958
L 216.4428 59.998692
L 219.15936 65.747588
L 221.87592 72.264623
L 224.59248 79.427683
L 227.30904 87.107357
L 230.0256 95.170785
L 232.74216 103.485427
L 235.45872 111.922582
L 238.17528 120.360551
L 240.89184 128.687334
L 243.6084 136.802788
L 246.32496 144.620212
L 249.04152 152.067341
L 251.75808 159.08677
L 254.47464 165.635847
L 257.1912 171.686097
L 259.90776 177.22226
L 262.62432 182.241009
L 265.34088 186.74946
L 268.05744 190.763542
L 270.774 194.306321
L 273.49056 197.406333
L 276.20712 200.09601
L 278.92368 202.410226
L 281.64024 204.385006
L 284.3568 206.056421
L 287.07336 207.459676
L 289.78992 208.628387
L 292.50648 209.594051
L 295.22304 210.385676
L 297.9396 211.029565
L 300.65616 211.54923
L 303.37272 211.965406
L 306.08928 212.296149
L 308.80584 212.556993
L 311.5224 212.76115
L 314.23896 212.919732
L 316.95552 213.041986
L 319.67208 213.135529
L 322.38864 213.206569
L 325.1052 213.260117
L 327.82176 213.300182
L 330.53832 213.329936
L 333.25488 213.35187
L 335.97144 213.367921
L 338.688 213.379579
L 341.40456 213.387986
L 344.12112 213.394004
L 346.83768 213.39828
L 349.55424 213.401296
L 352.2708 213.403409
L 354.98736 213.404877
L 357.70392 213.405891
L 360.42048 213.406585
L 363.13704 213.407057
L 365.8536 213.407376
L 368.57016 213.40759
L 371.28672 213.407733
L 374.00328 213.407827
L 376.71984 213.407889
L 379.4364 213.407929
L 382.15296 213.407955
L 384.86952 213.407972
L 387.58608 213.407982
L 390.30264 213.407989
L 393.0192 213.407993
L 395.73576 213.407996
L 398.45232 213.407997
L 401.16888 213.407998
L 403.88544 213.407999
L 406.602 213.407999
L 409.31856 213.408
L 412.03512 213.408
L 414.75168 213.408
L 417.46824 213.408
L 420.1848 213.408
L 422.90136 213.408
L 425.61792 213.408
L 428.33448 213.408
L 431.05104 213.408
L 433.7676 213.408
L 436.48416 213.408
L 439.20072 213.408
L 441.91728 213.408
L 444.63384 213.408
L 447.3504 213.408
L 450.06696 213.408
L 452.78352 213.408
L 455.50008 213.408
L 458.21664 213.408
L 460.9332 213.408
L 463.64976 213.408
L 466.36632 213.408
L 469.08288 213.408
L 471.79944 213.408
L 474.516 213.408
L 477.23256 213.408
L 479.94912 213.408
L 482.66568 213.408
L 485.38224 213.408
L 488.0988 213.408
L 490.81536 213.408
L 493.53192 213.408
L 496.24848 213.408
L 498.96504 213.408
L 501.6816 213.408
L 504.39816 213.408
L 507.11472 213.408
L 509.83128 213.408
L 512.54784 213.408
L 515.2644 213.408
L 517.98096 213.408
L 520.69752 213.408
L 523.41408 213.408
L 526.13064 213.408
L 528.8472 213.408
L 531.56376 213.408
L 534.28032 213.408
L 536.99688 213.408
L 539.71344 213.408
L 542.43 213.408
L 545.14656 213.408
L 547.86312 213.408
L 550.57968 213.408
L 553.29624 213.408
L 556.0128 213.408
L 558.72936 213.408
L 561.44592 213.408
L 564.16248 213.408
L 566.87904 213.408
L 569.5956 213.408
L 572.31216 213.408
L 575.02872 213.408
L 577.74528 213.408
L 580.46184 213.408
L 583.1784 213.408
L 585.89496 213.408
L 588.61152 213.408
L 591.32808 213.408
L 594.04464 213.408
L 596.7612 213.408
L 599.47776 213.408
L 602.19432 213.408
L 604.91088 213.408
L 607.62744 213.408
L 610.344 213.408
L 613.06056 213.408
L 615.77712 213.408
L 618.49368 213.408
L 621.21024 213.408
L 623.9268 213.408
L 626.64336 213.408
L 629.35992 213.408
L 632.07648 213.408
L 634.79304 213.408
L 637.5096 213.408
L 640.22616 213.408
L 642.94272 213.408
L 645.65928 213.408
L 648.37584 213.408
L 651.0924 213.408
L 653.80896 213.408
L 656.52552 213.408
L 659.24208 213.408
L 661.95864 213.408
L 664.6752 213.408
L 667.39176 213.408
L 670.10832 213.408
L 672.82488 213.408
L 675.54144 213.408
L 678.258 213.408
L 680.97456 213.408
L 683.69112 213.408
L 686.40768 213.408
L 689.12424 213.408
L 691.8408 213.408
L 694.55736 213.408
L 697.27392 213.408
L 699.99048 213.408
L 702.70704 213.408
L 705.4236 213.408
L 708.14016 213.408
L 710.85672 213.408
L 713.57328 213.408
L 716.28984 213.408
L 719.0064 213.408
L 721.72296 213.408
L 724.43952 213.408
L 727.15608 213.408
L 729.87264 213.408
L 732.5892 213.408
L 735.30576 213.408
L 738.02232 213.408
L 740.73888 213.408
L 743.45544 213.408
L 746.172 213.408
L 748.88856 213.408
L 751.60512 213.408
L 754.32168 213.408
L 757.03824 213.408
L 759.7548 213.408
L 762.47136 213.408
L 765.18792 213.408
L 767.90448 213.408
L 770.62104 213.408
L 773.3376 213.408
L 776.05416 213.408
L 778.77072 213.408
L 781.48728 213.408
L 784.20384 213.408
L 786.9204 213.408
L 789.63696 213.408
L 792.35352 213.408
L 795.07008 213.408
L 797.78664 213.408
L 800.5032 213.408
L 803.21976 213.408
L 805.93632 213.408
L 808.65288 213.408
L 811.36944 213.408
L 814.086 213.408
L 816.80256 213.408
L 819.51912 213.408
L 822.23568 213.408
L 824.95224 213.408
L 827.6688 213.408
L 830.38536 213.408
L 833.10192 213.408
L 835.81848 213.408
L 838.53504 213.408
L 841.2516 213.408
L 843.96816 213.408
L 846.68472 213.408
L 849.40128 213.408
L 852.11784 213.408
L 854.8344 213.408
L 857.55096 213.408
L 860.26752 213.408
L 862.98408 213.408
L 865.70064 213.408
L 868.4172 213.408
L 871.13376 213.408
L 873.85032 213.408
L 876.56688 213.408
L 879.28344 213.408
L 882 213.408
L 884.71656 213.408
L 887.43312 213.408
L 890.14968 213.408
L 892.86624 213.408
L 895.5828 213.408
L 898.29936 213.408
L 901.01592 213.408
L 903.73248 213.408
L 906.44904 213.408
L 909.1656 213.408
L 911.88216 213.408
L 914.59872 213.408
L 917.31528 213.408
L 920.03184 213.408
L 922.7484 213.408
L 925.46496 213.408
L 928.18152 213.408
L 930.89808 213.408
L 933.61464 213.408
L 936.3312 213.408
L 939.04776 213.408
L 941.76432 213.408
L 944.48088 213.408
L 947.19744 213.408
L 949.914 213.408
L 952.63056 213.408
L 955.34712 213.408
L 958.06368 213.408
L 960.78024 213.408
L 963.4968 213.408
L 966.21336 213.408
L 968.92992 213.408
L 971.64648 213.408
L 974.36304 213.408
L 977.0796 213.408
L 979.79616 213.408
L 982.51272 213.408
L 985.22928 213.408
L 987.94584 213.408
L 990.6624 213.408
L 993.37896 213.408
L 996.09552 213.408
L 998.81208 213.408
L 1001.52864 213.408
L 1004.2452 213.408
L 1006.96176 213.408
L 1009.67832 213.408
L 1012.39488 213.408
L 1015.11144 213.408
L 1017.828 213.408
L 1020.54456 213.408
L 1023.26112 213.408
L 1025.97768 213.408
L 1028.69424 213.408
L 1031.4108 213.408
L 1034.12736 213.408
L 1036.84392 213.408
L 1039.56048 213.408
L 1042.27704 213.408
L 1044.9936 213.408
L 1047.71016 213.408
L 1050.42672 213.408
L 1053.14328 213.408
L 1055.85984 213.408
L 1058.5764 213.408
L 1061.29296 213.408
L 1064.00952 213.408
L 1066.72608 213.408
L 1069.44264 213.408
L 1072.1592 213.408
L 1072.1592 213.408
L 1072.1592 213.408
L 1069.44264 213.408
L 1066.72608 213.408
L 1064.00952 213.408
L 1061.29296 213.408
L 1058.5764 213.408
L 1055.85984 213.408
L 1053.14328 213.408
L 1050.42672 213.408
L 1047.71016 213.408
L 1044.9936 213.408
L 1042.27704 213.408
L 1039.56048 213.408
L 1036.84392 213.408
L 1034.12736 213.408
L 1031.4108 213.408
L 1028.69424 213.408
L 1025.97768 213.408
L 1023.26112 213.408
L 1020.54456 213.408
L 1017.828 213.408
L 1015.11144 213.408
L 1012.39488 213.408
L 1009.67832 213.408
L 1006.96176 213.408
L 1004.2452 213.408
L 1001.52864 213.408
L 998.81208 213.408
L 996.09552 213.408
L 993.37896 213.408
L 990.6624 213.408
L 987.94584 213.408
L 985.22928 213.408
L 982.51272 213.408
L 979.79616 213.408
L 977.0796 213.408
L 974.36304 213.408
L 971.64648 213.408
L 968.92992 213.408
L 966.21336 213.408
L 963.4968 213.408
L 960.78024 213.408
L 958.06368 213.408
L 955.34712 213.408
L 952.63056 213.408
L 949.914 213.408
L 947.19744 213.408
L 944.48088 213.408
L 941.76432 213.408
L 939.04776 213.408
L 936.3312 213.408
L 933.61464 213.408
L 930.89808 213.408
L 928.18152 213.408
L 925.46496 213.408
L 922.7484 213.408
L 920.03184 213.408
L 917.31528 213.408
L 914.59872 213.408
L 911.88216 213.408
L 909.1656 213.408
L 906.44904 213.408
L 903.73248 213.408
L 901.01592 213.408
L 898.29936 213.408
L 895.5828 213.408
L 892.86624 213.408
L 890.14968 213.408
L 887.43312 213.408
L 884.71656 213.408
L 882 213.408
L 879.28344 213.408
L 876.56688 213.408
L 873.85032 213.408
L 871.13376 213.408
L 868.4172 213.408
L 865.70064 213.408
L 862.98408 213.408
L 860.26752 213.408
L 857.55096 213.408
L 854.8344 213.408
L 852.11784 213.408
L 849.40128 213.408
L 846.68472 213.408
L 843.96816 213.408
L 841.2516 213.408
L 838.53504 213.408
L 835.81848 213.408
L 833.10192 213.408
L 830.38536 213.408
L 827.6688 213.408
L 824.95224 213.408
L 822.23568 213.408
L 819.51912 213.408
L 816.80256 213.408
L 814.086 213.408
L 811.36944 213.408
L 808.65288 213.408
L 805.93632 213.408
L 803.21976 213.408
L 800.5032 213.408
L 797.78664 213.408
L 795.07008 213.408
L 792.35352 213.408
L 789.63696 213.408
L 786.9204 213.408
L 784.20384 213.408
L 781.48728 213.408
L 778.77072 213.408
L 776.05416 213.408
L 773.3376 213.408
L 770.62104 213.408
L 767.90448 213.408
L 765.18792 213.408
L 762.47136 213.408
L 759.7548 213.408
L 757.03824 213.408
L 754.32168 213.408
L 751.60512 213.408
L 748.88856 213.408
L 746.172 213.408
L 743.45544 213.408
L 740.73888 213.408
L 738.02232 213.408
L 735.30576 213.408
L 732.5892 213.408
L 729.87264 213.408
L 727.15608 213.408
L 724.43952 213.408
L 721.72296 213.408
L 719.0064 213.408
L 716.28984 213.408
L 713.57328 213.408
L 710.85672 213.408
L 708.14016 213.408
L 705.4236 213.408
L 702.70704 213.408
L 699.99048 213.408
L 697.27392 213.408
L 694.55736 213.408
L 691.8408 213.408
L 689.12424 213.408
L 686.40768 213.408
L 683.69112 213.408
L 680.97456 213.408
L 678.258 213.408
L 675.54144 213.408
L 672.82488 213.408
L 670.10832 213.408
L 667.39176 213.408
L 664.6752 213.408
L 661.95864 213.408
L 659.24208 213.408
L 656.52552 213.408
L 653.80896 213.408
L 651.0924 213.408
L 648.37584 213.408
L 645.65928 213.408
L 642.94272 213.408
L 640.22616 213.408
L 637.5096 213.408
L 634.79304 213.408
L 632.07648 213.408
L 629.35992 213.408
L 626.64336 213.408
L 623.9268 213.408
L 621.21024 213.408
L 618.49368 213.408
L 615.77712 213.408
L 613.06056 213.408
L 610.344 213.408
L 607.62744 213.408
L 604.91088 213.408
L 602.19432 213.408
L 599.47776 213.408
L 596.7612 213.408
L 594.04464 213.408
L 591.32808 213.408
L 588.61152 213.408
L 585.89496 213.408
L 583.1784 213.408
L 580.46184 213.408
L 577.74528 213.408
L 575.02872 213.408
L 572.31216 213.408
L 569.5956 213.408
L 566.87904 213.408
L 564.16248 213.408
L 561.44592 213.408
L 558.72936 213.408
L 556.0128 213.408
L 553.29624 213.408
L 550.57968 213.408
L 547.86312 213.408
L 545.14656 213.408
L 542.43 213.408
L 539.71344 213.408
L 536.99688 213.408
L 534.28032 213.408
L 531.56376 213.408
L 528.8472 213.408
L 526.13064 213.408
L 523.41408 213.408
L 520.69752 213.408
L 517.98096 213.408
L 515.2644 213.408
L 512.54784 213.408
L 509.83128 213.408
L 507.11472 213.408
L 504.39816 213.408
L 501.6816 213.408
L 498.96504 213.408
L 496.24848 213.408
L 493.53192 213.408
L 490.81536 213.408
L 488.0988 213.408
L 485.38224 213.408
L 482.66568 213.408
L 479.94912 213.408
L 477.23256 213.408
L 474.516 213.408
L 471.79944 213.408
L 469.08288 213.408
L 466.36632 213.408
L 463.64976 213.408
L 460.9332 213.408
L 458.21664 213.408
L 455.50008 213.408
L 452.78352 213.408
L 450.06696 213.408
L 447.3504 213.408
L 444.63384 213.408
L 441.91728 213.408
L 439.20072 213.408
L 436.48416 213.408
L 433.7676 213.408
L 431.05104 213.408
L 428.33448 213.408
L 425.61792 213.408
L 422.90136 213.408
L 420.1848 213.408
L 417.46824 213.408
L 414.75168 213.408
L 412.03512 213.408
L 409.31856 213.408
L 406.602 213.408
L 403.88544 213.408
L 401.16888 213.408
L 398.45232 213.408
L 395.73576 213.408
L 393.0192 213.408
L 390.30264 213.408
L 387.58608 213.408
L 384.86952 213.408
L 382.15296 213.408
L 379.4364 213.408
L 376.71984 213.408
L 374.00328 213.408
L 371.28672 213.408
L 368.57016 213.408
L 365.8536 213.408
L 363.13704 213.408
L 360.42048 213.408
L 357.70392 213.408
L 354.98736 213.408
L 352.2708 213.408
L 349.55424 213.408
L 346.83768 213.408
L 344.12112 213.408
L 341.40456 213.408
L 338.688 213.408
L 335.97144 213.408
L 333.25488 213.408
L 330.53832 213.408
L 327.82176 213.408
L 325.1052 213.408
L 322.38864 213.408
L 319.67208 213.408
L 316.95552 213.408
L 314.23896 213.408
L 311.5224 213.408
L 308.80584 213.408
L 306.08928 213.408
L 303.37272 213.408
L 300.65616 213.408
L 297.9396 213.408
L 295.22304 213.408
L 292.50648 213.408
L 289.78992 213.408
L 287.07336 213.408
L 284.3568 213.408
L 281.64024 213.408
L 278.92368 213.408
L 276.20712 213.408
L 273.49056 213.408
L 270.774 213.408
L 268.05744 213.408
L 265.34088 213.408
L 262.62432 213.408
L 259.90776 213.408
L 257.1912 213.408
L 254.47464 213.408
L 251.75808 213.408
L 249.04152 213.408
L 246.32496 213.408
L 243.6084 213.408
L 240.89184 213.408
L 238.17528 213.408
L 235.45872 213.408
L 232.74216 213.408
L 230.0256 213.408
L 227.30904 213.408
L 224.59248 213.408
L 221.87592 213.408
L 219.15936 213.408
L 216.4428 213.408
L 213.72624 213.408
L 211.00968 213.408
L 208.29312 213.408
L 205.57656 213.408
L 202.86 213.408
L 200.14344 213.408
L 197.42688 213.408
L 194.71032 213.408
L 191.99376 213.408
L 189.2772 213.408
L 186.56064 213.408
L 183.84408 213.408
L 181.12752 213.408
L 178.41096 213.408
L 175.6944 213.408
L 172.97784 213.408
L 170.26128 213.408
L 167.54472 213.408
L 164.82816 213.408
L 162.1116 213.408
L 159.39504 213.408
L 156.67848 213.408
L 153.96192 213.408
L 151.24536 213.408
L 148.5288 213.408
L 145.81224 213.408
L 143.09568 213.408
L 140.37912 213.408
L 137.66256 213.408
L 134.946 213.408
L 132.22944 213.408
L 129.51288 213.408
L 126.79632 213.408
L 124.07976 213.408
L 121.3632 213.408
L 118.64664 213.408
L 115.93008 213.408
L 113.21352 213.408
L 110.49696 213.408
L 107.7804 213.408
L 105.06384 213.408
L 102.34728 213.408
L 99.63072 213.408
L 96.91416 213.408
L 94.1976 213.408
L 91.48104 213.408
L 88.76448 213.408
L 86.04792 213.408
L 83.33136 213.408
L 80.6148 213.408
L 77.89824 213.408
L 75.18168 213.408
L 72.46512 213.408
L 69.74856 213.408
L 67.032 213.408
L 64.31544 213.408
L 61.59888 213.408
L 58.88232 213.408
L 56.16576 213.408
L 53.4492 213.408
L 50.73264 213.408
L 48.01608 213.408
L 45.29952 213.408
L 42.58296 213.408
L 39.8664 213.408
L 37.14984 213.408
L 34.43328 213.408
L 31.71672 213.408
L 29.00016 213.408
L 26.2836 213.408
L 23.56704 213.408
L 20.85048 213.408
L 18.13392 213.408
L 15.41736 213.408
L 12.7008 213.408
L 9.98424 213.408
L 7.26768 213.408
L 4.55112 213.408
L 1.83456 213.408
L -0.882 213.408
L -3.59856 213.408
L -6.31512 213.408
L -9.03168 213.408
L -11.74824 213.408
L -14.4648 213.408
L -17.18136 213.408
L -19.89792 213.408
L -22.61448 213.408
L -25.33104 213.408
L -28.0476 213.408
L -30.76416 213.408
L -33.48072 213.408
L -36.19728 213.408
L -38.91384 213.408
L -41.6304 213.408
L -44.34696 213.408
L -47.06352 213.408
L -49.78008 213.408
L -52.49664 213.408
L -55.2132 213.408
L -57.92976 213.408
L -60.64632 213.408
L -63.36288 213.408
L -66.07944 213.408
L -68.796 213.408
L -71.51256 213.408
L -74.22912 213.408
L -76.94568 213.408
L -79.66224 213.408
L -82.3788 213.408
L -85.09536 213.408
L -87.81192 213.408
L -90.52848 213.408
L -93.24504 213.408
L -95.9616 213.408
L -98.67816 213.408
L -101.39472 213.408
L -104.11128 213.408
L -106.82784 213.408
L -109.5444 213.408
L -112.26096 213.408
L -114.97752 213.408
L -117.69408 213.408
L -120.41064 213.408
L -123.1272 213.408
L -125.84376 213.408
L -128.56032 213.408
L -131.27688 213.408
L -133.99344 213.408
L -136.71 213.408
L -139.42656 213.408
L -142.14312 213.408
L -144.85968 213.408
L -147.57624 213.408
L -150.2928 213.408
L -153.00936 213.408
L -155.72592 213.408
L -158.44248 213.408
L -161.15904 213.408
L -163.8756 213.408
L -166.59216 213.408
L -169.30872 213.408
L -172.02528 213.408
L -174.74184 213.408
L -177.4584 213.408
L -180.17496 213.408
L -182.89152 213.408
L -185.60808 213.408
L -188.32464 213.408
L -191.0412 213.408
L -193.75776 213.408
L -196.47432 213.408
L -199.19088 213.408
L -201.90744 213.408
L -204.624 213.408
L -207.34056 213.408
L -210.05712 213.408
L -212.77368 213.408
L -215.49024 213.408
L -218.2068 213.408
L -220.92336 213.408
L -223.63992 213.408
L -226.35648 213.408
L -229.07304 213.408
L -231.7896 213.408
L -234.50616 213.408
L -237.22272 213.408
L -239.93928 213.408
L -242.65584 213.408
L -245.3724 213.408
L -248.08896 213.408
L -250.80552 213.408
L -253.52208 213.408
L -256.23864 213.408
L -258.9552 213.408
L -261.67176 213.408
L -264.38832 213.408
L -267.10488 213.408
L -269.82144 213.408
L -272.538 213.408
L -275.25456 213.408
L -277.97112 213.408
L -280.68768 213.408
L -283.40424 213.408
L -286.1208 213.408
L -288.83736 213.408
L -291.55392 213.408
L -294.27048 213.408
L -296.98704 213.408
L -299.7036 213.408
L -302.42016 213.408
L -305.13672 213.408
L -307.85328 213.408
L -310.56984 213.408
L -313.2864 213.408
L -316.00296 213.408
L -318.71952 213.408
L -321.43608 213.408
L -324.15264 213.408
L -326.8692 213.408
L -329.58576 213.408
L -332.30232 213.408
L -335.01888 213.408
L -337.73544 213.408
L -340.452 213.408
L -343.16856 213.408
L -345.88512 213.408
L -348.60168 213.408
L -351.31824 213.408
L -354.0348 213.408
L -356.75136 213.408
L -359.46792 213.408
L -362.18448 213.408
L -364.90104 213.408
L -367.6176 213.408
L -370.33416 213.408
L -373.05072 213.408
L -375.76728 213.408
L -378.48384 213.408
L -381.2004 213.408
L -383.91696 213.408
L -386.63352 213.408
L -389.35008 213.408
L -392.06664 213.408
L -394.7832 213.408
L -397.49976 213.408
L -400.21632 213.408
L -402.93288 213.408
L -405.64944 213.408
L -408.366 213.408
L -411.08256 213.408
L -413.79912 213.408
L -416.51568 213.408
L -419.23224 213.408
L -421.9488 213.408
L -424.66536 213.408
L -427.38192 213.408
L -430.09848 213.408
L -432.81504 213.408
L -435.5316 213.408
L -438.24816 213.408
L -440.96472 213.408
L -443.68128 213.408
L -446.39784 213.408
L -449.1144 213.408
L -451.83096 213.408
L -454.54752 213.408
L -457.26408 213.408
L -459.98064 213.408
L -462.6972 213.408
L -465.41376 213.408
L -468.13032 213.408
L -470.84688 213.408
L -473.56344 213.408
L -476.28 213.408
L -478.99656 213.408
L -481.71312 213.408
L -484.42968 213.408
L -487.14624 213.408
L -489.8628 213.408
L -492.57936 213.408
L -495.29592 213.408
L -498.01248 213.408
L -500.72904 213.408
L -503.4456 213.408
L -506.16216 213.408
L -508.87872 213.408
L -511.59528 213.408
L -514.31184 213.408
L -517.0284 213.408
L -519.74496 213.408
L -522.46152 213.408
L -525.17808 213.408
L -527.89464 213.408
L -530.6112 213.408
L -533.32776 213.408
L -536.04432 213.408
L -538.76088 213.408
L -541.47744 213.408
L -544.194 213.408
L -546.91056 213.408
L -549.62712 213.408
L -552.34368 213.408
L -555.06024 213.408
L -557.7768 213.408
L -560.49336 213.408
L -563.20992 213.408
L -565.92648 213.408
L -568.64304 213.408
L -571.3596 213.408
L -574.07616 213.408
L -576.79272 213.408
L -579.50928 213.408
L -582.22584 213.408
L -584.9424 213.408
L -587.65896 213.408
L -590.37552 213.408
L -593.09208 213.408
L -595.80864 213.408
L -598.5252 213.408
L -601.24176 213.408
L -603.95832 213.408
L -606.67488 213.408
L -609.39144 213.408
L -612.108 213.408
L -614.82456 213.408
L -617.54112 213.408
L -620.25768 213.408
L -622.97424 213.408
L -625.6908 213.408
L -628.40736 213.408
L -631.12392 213.408
L -633.84048 213.408
L -636.55704 213.408
L -639.2736 213.408
L -641.99016 213.408
L -644.70672 213.408
L -647.42328 213.408
L -650.13984 213.408
L -652.8564 213.408
L -655.57296 213.408
L -658.28952 213.408
L -661.00608 213.408
L -663.72264 213.408
L -666.4392 213.408
L -669.15576 213.408
L -671.87232 213.408
L -674.58888 213.408
L -677.30544 213.408
L -680.022 213.408
L -682.73856 213.408
L -685.45512 213.408
L -688.17168 213.408
L -690.88824 213.408
L -693.6048 213.408
L -696.32136 213.408
L -699.03792 213.408
L -701.75448 213.408
L -704.47104 213.408
L -707.1876 213.408
L -709.90416 213.408
L -712.62072 213.408
L -715.33728 213.408
L -718.05384 213.408
L -720.7704 213.408
L -723.48696 213.408
L -726.20352 213.408
L -728.92008 213.408
L -731.63664 213.408
L -734.3532 213.408
L -737.06976 213.408
L -739.78632 213.408
L -742.50288 213.408
L -745.21944 213.408
L -747.936 213.408
L -750.65256 213.408
L -753.36912 213.408
L -756.08568 213.408
L -758.80224 213.408
L -761.5188 213.408
L -764.23536 213.408
L -766.95192 213.408
L -769.66848 213.408
L -772.38504 213.408
L -775.1016 213.408
L -777.81816 213.408
L -780.53472 213.408
L -783.25128 213.408
L -785.96784 213.408
L -788.6844 213.408
L -791.40096 213.408
L -794.11752 213.408
L -796.83408 213.408
L -799.55064 213.408
L -802.2672 213.408
L -804.98376 213.408
L -807.70032 213.408
L -810.41688 213.408
L -813.13344 213.408
L -815.85 213.408
L -818.56656 213.408
L -821.28312 213.408
L -823.99968 213.408
L -826.71624 213.408
L -829.4328 213.408
L -832.14936 213.408
L -834.86592 213.408
L -837.58248 213.408
L -840.29904 213.408
L -843.0156 213.408
L -845.73216 213.408
L -848.44872 213.408
L -851.16528 213.408
L -853.88184 213.408
L -856.5984 213.408
L -859.31496 213.408
L -862.03152 213.408
L -864.74808 213.408
L -867.46464 213.408
L -870.1812 213.408
L -872.89776 213.408
L -875.61432 213.408
L -878.33088 213.408
L -881.04744 213.408
L -883.764 213.408
L -886.48056 213.408
L -889.19712 213.408
L -891.91368 213.408
L -894.63024 213.408
L -897.3468 213.408
L -900.06336 213.408
L -902.77992 213.408
L -905.49648 213.408
L -908.21304 213.408
L -910.9296 213.408
L -913.64616 213.408
L -916.36272 213.408
L -919.07928 213.408
L -921.79584 213.408
L -924.5124 213.408
L -927.22896 213.408
L -929.94552 213.408
L -932.66208 213.408
L -935.37864 213.408
L -938.0952 213.408
L -940.81176 213.408
L -943.52832 213.408
L -946.24488 213.408
L -948.96144 213.408
L -951.678 213.408
L -954.39456 213.408
L -957.11112 213.408
L -959.82768 213.408
L -962.54424 213.408
L -965.2608 213.408
z
" clip-path="url(#pa8aedf8fc4)" style="fill: #303438; fill-opacity: 0.055"/>
   </g>
   <g id="matplotlib.axis_1">
    <g id="xtick_1">
     <g id="line2d_1"/>
     <g id="text_1">
      <text style="font-size: 13px; font-family: 'Arial', 'Helvetica', 'DejaVu Sans', sans-serif; text-anchor: middle; fill: #686868" x="121.3632" y="229.872355" transform="rotate(-0 121.3632 229.872355)">45.0</text>
     </g>
    </g>
    <g id="xtick_2">
     <g id="line2d_2"/>
     <g id="text_2">
      <text style="font-size: 13px; font-family: 'Arial', 'Helvetica', 'DejaVu Sans', sans-serif; text-anchor: middle; fill: #686868" x="189.2772" y="229.872355" transform="rotate(-0 189.2772 229.872355)">47.5</text>
     </g>
    </g>
    <g id="xtick_3">
     <g id="line2d_3"/>
     <g id="text_3">
      <text style="font-size: 13px; font-family: 'Arial', 'Helvetica', 'DejaVu Sans', sans-serif; text-anchor: middle; fill: #686868" x="257.1912" y="229.872355" transform="rotate(-0 257.1912 229.872355)">50.0</text>
     </g>
    </g>
    <g id="xtick_4">
     <g id="line2d_4"/>
     <g id="text_4">
      <text style="font-size: 13px; font-family: 'Arial', 'Helvetica', 'DejaVu Sans', sans-serif; text-anchor: middle; fill: #686868" x="325.1052" y="229.872355" transform="rotate(-0 325.1052 229.872355)">52.5</text>
     </g>
    </g>
    <g id="text_5">
     <text style="font-size: 13px; font-family: 'Arial', 'Helvetica', 'DejaVu Sans', sans-serif; text-anchor: middle; fill: #555555" x="202.86" y="247.908039" transform="rotate(-0 202.86 247.908039)">Distance (Å)</text>
    </g>
   </g>
   <g id="matplotlib.axis_2">
    <g id="ytick_1">
     <g id="line2d_5"/>
     <g id="text_6">
      <text style="font-size: 13px; font-family: 'Arial', 'Helvetica', 'DejaVu Sans', sans-serif; text-anchor: end; fill: #686868" x="60.032" y="218.140178" transform="rotate(-0 60.032 218.140178)">0.0</text>
     </g>
    </g>
    <g id="ytick_2">
     <g id="line2d_6"/>
     <g id="text_7">
      <text style="font-size: 13px; font-family: 'Arial', 'Helvetica', 'DejaVu Sans', sans-serif; text-anchor: end; fill: #686868" x="60.032" y="167.810742" transform="rotate(-0 60.032 167.810742)">0.1</text>
     </g>
    </g>
    <g id="ytick_3">
     <g id="line2d_7"/>
     <g id="text_8">
      <text style="font-size: 13px; font-family: 'Arial', 'Helvetica', 'DejaVu Sans', sans-serif; text-anchor: end; fill: #686868" x="60.032" y="117.481305" transform="rotate(-0 60.032 117.481305)">0.2</text>
     </g>
    </g>
    <g id="ytick_4">
     <g id="line2d_8"/>
     <g id="text_9">
      <text style="font-size: 13px; font-family: 'Arial', 'Helvetica', 'DejaVu Sans', sans-serif; text-anchor: end; fill: #686868" x="60.032" y="67.151869" transform="rotate(-0 60.032 67.151869)">0.3</text>
     </g>
    </g>
    <g id="text_10">
     <text style="font-size: 13px; font-family: 'Arial', 'Helvetica', 'DejaVu Sans', sans-serif; text-anchor: middle; fill: #555555" x="35.225906" y="113.544" transform="rotate(-90 35.225906 113.544)">Density (1/Å)</text>
    </g>
   </g>
   <g id="patch_3">
    <path d="M 67.032 213.408
L 67.032 13.68
" style="fill: none; stroke: #c9c9c5; stroke-width: 0.7; stroke-linejoin: miter; stroke-linecap: square"/>
   </g>
   <g id="patch_4">
    <path d="M 67.032 213.408
L 338.688 213.408
" style="fill: none; stroke: #c9c9c5; stroke-width: 0.7; stroke-linejoin: miter; stroke-linecap: square"/>
   </g>
   <g id="line2d_9">
    <path d="M -1 213.407999
L 77.89824 213.300182
L 88.76448 213.041986
L 94.1976 212.76115
L 99.63072 212.296149
L 105.06384 211.54923
L 107.7804 211.029565
L 110.49696 210.385676
L 113.21352 209.594051
L 115.93008 208.628387
L 118.64664 207.459676
L 121.3632 206.056421
L 124.07976 204.385006
L 126.79632 202.410226
L 129.51288 200.09601
L 132.22944 197.406333
L 134.946 194.306321
L 137.66256 190.763542
L 140.37912 186.74946
L 143.09568 182.241009
L 145.81224 177.22226
L 148.5288 171.686097
L 151.24536 165.635847
L 153.96192 159.08677
L 156.67848 152.067341
L 159.39504 144.620212
L 164.82816 128.687334
L 178.41096 87.107357
L 181.12752 79.427683
L 183.84408 72.264623
L 186.56064 65.747588
L 189.2772 59.998692
L 191.99376 55.128958
L 194.71032 51.234764
L 197.42688 48.394674
L 200.14344 46.666802
L 202.86 46.086833
L 205.57656 46.666802
L 208.29312 48.394674
L 211.00968 51.234764
L 213.72624 55.128958
L 216.4428 59.998692
L 219.15936 65.747588
L 221.87592 72.264623
L 224.59248 79.427683
L 227.30904 87.107357
L 232.74216 103.485427
L 240.89184 128.687334
L 246.32496 144.620212
L 249.04152 152.067341
L 251.75808 159.08677
L 254.47464 165.635847
L 257.1912 171.686097
L 259.90776 177.22226
L 262.62432 182.241009
L 265.34088 186.74946
L 268.05744 190.763542
L 270.774 194.306321
L 273.49056 197.406333
L 276.20712 200.09601
L 278.92368 202.410226
L 281.64024 204.385006
L 284.3568 206.056421
L 287.07336 207.459676
L 289.78992 208.628387
L 292.50648 209.594051
L 295.22304 210.385676
L 297.9396 211.029565
L 303.37272 211.965406
L 308.80584 212.556993
L 314.23896 212.919732
L 322.38864 213.206569
L 335.97144 213.367921
L 353.8 213.404235
L 353.8 213.404235
" clip-path="url(#pa8aedf8fc4)" style="fill: none; stroke-dasharray: 4.625,2; stroke-dashoffset: 0; stroke: #303438; stroke-width: 1.25"/>
   </g>
   <g id="line2d_10">
    <path d="M -1 213.407997
L 72.46512 213.311079
L 83.33136 213.097636
L 91.48104 212.712023
L 96.91416 212.252149
L 102.34728 211.535587
L 107.7804 210.449342
L 110.49696 209.723414
L 113.21352 208.847831
L 115.93008 207.799181
L 118.64664 206.552167
L 121.3632 205.079875
L 124.07976 203.354146
L 126.79632 201.346089
L 129.51288 199.026705
L 132.22944 196.367665
L 134.946 193.342197
L 137.66256 189.9261
L 140.37912 186.098849
L 143.09568 181.84477
L 145.81224 177.154248
L 148.5288 172.024925
L 151.24536 166.46284
L 153.96192 160.483452
L 156.67848 154.112495
L 159.39504 147.38661
L 164.82816 133.072909
L 178.41096 95.73505
L 181.12752 88.748398
L 183.84408 82.165922
L 186.56064 76.092754
L 189.2772 70.629544
L 191.99376 65.869668
L 194.71032 61.896587
L 197.42688 58.781436
L 200.14344 56.580898
L 202.86 55.335465
L 205.57656 55.068236
L 208.29312 55.784183
L 211.00968 57.469997
L 213.72624 60.094506
L 216.4428 63.609645
L 219.15936 67.951877
L 221.87592 73.044165
L 224.59248 78.798183
L 227.30904 85.116903
L 230.0256 91.89729
L 235.45872 106.417433
L 246.32496 136.426445
L 251.75808 150.501298
L 254.47464 157.070256
L 257.1912 163.266162
L 259.90776 169.057417
L 262.62432 174.423076
L 265.34088 179.352103
L 268.05744 183.842431
L 270.774 187.899882
L 273.49056 191.536988
L 276.20712 194.771789
L 278.92368 197.626632
L 281.64024 200.127027
L 284.3568 202.300573
L 287.07336 204.17601
L 289.78992 205.782375
L 292.50648 207.148296
L 295.22304 208.301416
L 297.9396 209.267952
L 300.65616 210.072364
L 303.37272 210.737146
L 308.80584 211.727309
L 314.23896 212.376382
L 319.67208 212.790349
L 327.82176 213.134904
L 338.688 213.323682
L 353.8 213.393869
L 353.8 213.393869
" clip-path="url(#pa8aedf8fc4)" style="fill: none; stroke: #2980b9; stroke-width: 1.25; stroke-linecap: square"/>
   </g>
   <g id="line2d_11">
    <path d="M -1 213.363189
L 64.31544 213.239627
L 86.04792 213.004304
L 96.91416 212.692929
L 105.06384 212.250055
L 110.49696 211.777379
L 115.93008 211.03725
L 121.3632 209.935447
L 124.07976 209.127863
L 126.79632 208.14719
L 129.51288 206.975305
L 132.22944 205.421715
L 134.946 203.485162
L 137.66256 201.167889
L 140.37912 198.314275
L 143.09568 194.669629
L 145.81224 190.421212
L 148.5288 185.546708
L 151.24536 179.598713
L 153.96192 172.936351
L 156.67848 165.637844
L 159.39504 157.561282
L 162.1116 148.776059
L 164.82816 139.547305
L 167.54472 129.903863
L 172.97784 109.346884
L 183.84408 67.537539
L 186.56064 57.714874
L 189.2772 48.90699
L 191.99376 40.99357
L 194.71032 34.062736
L 197.42688 28.849428
L 200.14344 25.394295
L 202.86 23.421794
L 205.57656 23.190857
L 208.29312 25.378475
L 211.00968 29.023878
L 213.72624 34.077181
L 216.4428 41.005755
L 219.15936 49.07736
L 221.87592 57.970102
L 224.59248 67.66592
L 230.0256 88.398378
L 238.17528 119.786144
L 243.6084 139.46376
L 246.32496 148.504845
L 249.04152 157.074225
L 251.75808 165.14842
L 254.47464 172.265038
L 257.1912 178.735077
L 259.90776 184.580152
L 262.62432 189.578623
L 265.34088 193.76714
L 268.05744 197.399379
L 270.774 200.481924
L 273.49056 202.827824
L 276.20712 204.819893
L 278.92368 206.483778
L 281.64024 207.768002
L 284.3568 208.792635
L 287.07336 209.646743
L 289.78992 210.337877
L 295.22304 211.295188
L 300.65616 211.937036
L 308.80584 212.518697
L 319.67208 212.915001
L 333.25488 213.143403
L 353.8 213.273535
L 353.8 213.273535
" clip-path="url(#pa8aedf8fc4)" style="fill: none; stroke: #8e44ad; stroke-width: 1.25; stroke-linecap: square"/>
   </g>
   <g id="line2d_12">
    <path d="M -1 213.401829
L 67.032 213.305171
L 83.33136 213.047884
L 94.1976 212.479467
L 99.63072 211.995658
L 105.06384 211.118292
L 107.7804 210.637441
L 110.49696 209.926517
L 115.93008 208.062213
L 118.64664 206.834387
L 124.07976 203.382767
L 126.79632 201.366827
L 134.946 192.334
L 143.09568 178.67824
L 151.24536 160.326637
L 156.67848 146.07213
L 162.1116 131.399677
L 170.26128 108.956628
L 175.6944 94.637178
L 178.41096 87.951118
L 183.84408 75.932348
L 186.56064 70.517235
L 191.99376 62.828224
L 194.71032 59.383379
L 202.86 56.585551
L 211.00968 62.394293
L 213.72624 66.346993
L 219.15936 74.894011
L 221.87592 80.378765
L 227.30904 92.264909
L 230.0256 98.828621
L 238.17528 119.995207
L 246.32496 141.977803
L 254.47464 162.392141
L 262.62432 179.116234
L 270.774 191.260487
L 276.20712 196.80983
L 278.92368 199.51886
L 281.64024 201.474058
L 287.07336 204.920549
L 289.78992 206.22346
L 295.22304 208.330126
L 297.9396 209.171885
L 306.08928 210.943515
L 314.23896 211.980116
L 325.1052 212.688302
L 335.97144 213.041822
L 346.83768 213.217432
L 353.8 213.27557
L 353.8 213.27557
" clip-path="url(#pa8aedf8fc4)" style="fill: none; stroke: #c0392b; stroke-width: 1.7; stroke-linecap: square"/>
   </g>
  </g>
 </g>
 <defs>
  <clipPath id="pa8aedf8fc4">
   <rect x="67.032" y="13.68" width="271.656" height="199.728"/>
  </clipPath>
 </defs>
</svg>
